<svg xmlns="http://www.w3.org/2000/svg" viewBox="0 0 48 48" role="img" aria-hidden="true">
  <rect width="48" height="48" rx="10" fill="#fff"/>
  <path fill="#4285F4" d="M33.5 24.3c0-.8-.07-1.6-.2-2.3H24v4.3h5.4c-.2 1.4-1 2.6-2.1 3.4v2.8h3.4c2-1.8 3.2-4.5 3.2-7.2z"/>
  <path fill="#34A853" d="M24 34c2.8 0 5.2-1 6.9-2.6l-3.4-2.8c-.9.6-2.1 1-3.5 1-2.7 0-5-1.8-5.8-4.2h-3.5v2.9C17.4 31.8 20.4 34 24 34z"/>
  <path fill="#FBBC05" d="M18.2 25.4c-.2-.6-.3-1.2-.3-1.9s.1-1.3.3-1.9v-2.9h-3.5c-.7 1.4-1.1 3-1.1 4.8s.4 3.4 1.1 4.8l3.5-2.9z"/>
  <path fill="#EA4335" d="M24 17.7c1.5 0 2.9.5 4 1.5l3-3c-1.8-1.7-4.2-2.7-7-2.7-3.6 0-6.6 2.2-8 5.3l3.5 2.9c.8-2.4 3.1-4 5.5-4z"/>
</svg>
