<svg xmlns="http://www.w3.org/2000/svg" viewBox="0 0 48 48" role="img" aria-hidden="true">
  <defs>
    <linearGradient id="mg" x1="0" y1="0" x2="1" y2="1">
      <stop stop-color="#0081FB"/>
      <stop offset="1" stop-color="#0064E0"/>
    </linearGradient>
  </defs>
  <rect width="48" height="48" rx="10" fill="#eef3ff"/>
  <path fill="url(#mg)" d="M24 16c-2.8 0-5 2-5 4.5 0 1.2.5 2.3 1.3 3.1-1.5.9-2.5 2.5-2.5 4.4 0 2.8 2.4 5 5.2 5s5.2-2.2 5.2-5c0-1.9-1-3.5-2.5-4.4.8-.8 1.3-1.9 1.3-3.1 0-2.5-2.2-4.5-5-4.5zm0 3c1.1 0 2 .9 2 2s-.9 2-2 2-2-.9-2-2 .9-2 2-2zm0 8.5c1.4 0 2.5 1.1 2.5 2.5S25.4 32 24 32s-2.5-1.1-2.5-2.5 1.1-2.5 2.5-2.5z"/>
</svg>
