<svg xmlns="http://www.w3.org/2000/svg" viewBox="0 0 48 48" role="img" aria-hidden="true">
  <rect width="48" height="48" rx="10" fill="#010101"/>
  <path fill="#25F4EE" d="M30 14h3v9.5c0 3.3-2.5 6-5.8 6.1-1 0-1.9-.2-2.7-.6v-2.7c.6.3 1.3.5 2 .5 2 0 3.5-1.6 3.5-3.6V14z"/>
  <path fill="#FE2C55" d="M30 14h3v9.5c0 3.3-2.5 6-5.8 6.1-.9 0-1.7-.2-2.4-.5l1.5-1.5c.3.1.6.1.9.1 1.7 0 3-1.4 3-3.1V14z"/>
  <path fill="#fff" d="M21 26.5c3.3 0 6 2.7 6 6s-2.7 6-6 6-6-2.7-6-6c0-2.9 2-5.3 4.7-5.9v2.8c-1 .5-1.7 1.6-1.7 2.9 0 1.8 1.4 3.2 3.2 3.2s3.2-1.4 3.2-3.2-1.4-3.2-3.2-3.2c-.2 0-.4 0-.6.1v-3.1c.2 0 .4-.1.6-.1z"/>
</svg>
